<?xml version="1.0" encoding="UTF-8"?>
<svg width="209px" height="29px" viewBox="0 0 209 29" version="1.1" xmlns="http://www.w3.org/2000/svg" xmlns:xlink="http://www.w3.org/1999/xlink">
    <!-- Generator: Sketch 52.2 (67145) - http://www.bohemiancoding.com/sketch -->
    <title>电子校园卡logo</title>
    <desc>Created with Sketch.</desc>
    <g id="Page-1" stroke="none" stroke-width="1" fill="none" fill-rule="evenodd">
        <g id="Icon-图标-01" transform="translate(-207.000000, -1159.000000)" fill="#FFFFFF">
            <g id="电子校园卡logo" transform="translate(207.000000, 1159.000000)">
                <g id="logo">
                    <path d="M21.2683409,25.1282051 L20.8205128,26.1436544 C21.3135666,26.4526832 21.6413366,26.6356862 22.2320686,26.8355892 L22.5239378,25.7170498 C22.2378967,25.6055097 22.1758862,25.5618111 22.0129336,25.4884168 C21.7348187,25.3631153 21.4902733,25.2445738 21.2683409,25.1282051" id="Fill-3"></path>
                    <polygon id="Fill-5" points="18.6666667 26.1304965 19.9215643 26.5353725 19.921098 23.6923077"></polygon>
                    <path d="M6.28568735,18.3358489 C6.85287403,18.4903633 8.10450793,19.245311 7.87814613,21.8334271 L7.88560604,21.8083185 C7.88187609,21.8331857 7.87907862,21.8503271 7.87907862,21.8503271 C9.02743931,19.514504 7.50328539,16.5128205 4.51255876,16.5128205 C1.30386273,16.5128205 -1.19404325,20.6591177 0.600765727,23.9167157 C1.9689608,26.3993274 5.82387198,25.7105313 5.82387198,25.7105313 C5.82387198,25.7105313 4.72959567,25.5185954 4.31626974,25.3855682 C4.10902397,25.3189338 1.43953994,24.5422576 2.16897978,20.9840808 C2.30978567,20.3582975 3.1518236,17.4836055 6.28568735,18.3358489" id="Fill-7"></path>
                    <path d="M32.102637,22.7394488 C32.1035695,22.7382417 32.1040357,22.737276 32.1040357,22.737276 L32.1049682,22.7363102 C32.1049682,22.7363102 32.1035695,22.7382417 32.102637,22.7394488 Z M33.3414491,17.7370453 C32.2937973,14.2034942 30.1143365,13.0393249 28.9125907,12.5835074 C28.6118629,12.462793 27.2233862,12.051157 25.51017,12.4519287 C25.4735698,12.3181772 25.4204179,12.1576271 25.3535118,11.9799355 L25.3761247,11.9241655 L26.6100413,8.92996626 L28.3192944,8.42200019 C28.3192944,8.42224162 28.3239568,12.1660771 29.2613418,12.5130102 L31.3699334,12.2942758 C29.6261783,11.7500954 29.0501329,8.20568004 29.0501329,8.20495576 L29.5159114,8.06637566 L29.7359789,8.00094847 L31.1559271,7.57893103 L18.8694468,0 L4.30769231,1.46909389 L8.57103385,4.71727617 L8.89437454,8.47004451 C8.80229122,8.56178743 8.70764354,8.65256464 8.61882393,8.74623899 C6.91726389,10.5424688 5.90224918,12.6631789 5.40779668,14.8949462 C5.31571335,15.3116522 5.33459626,15.6520667 5.83371121,15.9060497 C7.1436257,16.5738416 7.84648958,17.959884 8.1460518,19.567558 C8.39479335,20.9024175 7.82294422,22.1245298 7.82294422,22.1245298 C7.82294422,22.1245298 10.8297563,18.9649519 7.90080709,14.9282633 C7.8842554,14.9050862 7.64297377,14.6559317 7.7194379,14.5033487 C8.88854649,12.1887714 9.90589242,9.84546405 11.8788069,8.97028486 C16.4967275,6.92272771 20.3987294,8.79983617 20.519953,8.85415764 C23.3640457,10.2585486 24.9313272,13.3990537 24.9432165,13.3966394 C29.0338144,12.5460859 30.4815042,16.3835958 30.5090126,16.452403 C30.5111107,16.4572315 30.5125094,16.4606115 30.5139082,16.465923 C31.311886,18.9753333 31.7433954,23.0658605 28.5062585,25.4485207 C27.7656288,25.9434496 27.0730223,26.2727584 26.4331014,26.4835257 L26.6517702,27.9132667 C26.9788408,27.8659467 27.306844,27.8012438 27.6306509,27.7179509 C27.769825,27.687048 31.0577826,26.9374118 32.7113194,23.9217254 C33.6522012,22.2063741 33.8610789,20.130087 33.3402835,17.7355967 L33.3414491,17.7370453 Z" id="Fill-9"></path>
                    <polygon id="Fill-1" points="18.6783152 22.1431802 19.4187118 19.3846154 6.46153846 24.3553917"></polygon>
                    <polygon id="Fill-2" points="6.46153846 24.8707214 16.7035358 27.6884362 18.6783152 23.6923077"></polygon>
                    <path d="M23.8464016,25.8461538 L23.6923077,26.9651761 C24.3280323,27.0953062 24.8700418,27.1674933 25.5694089,27.1691833 L25.5288456,25.9473125 C24.8607169,26.0262597 24.3613688,25.9555211 23.8464016,25.8461538" id="Fill-11"></path>
                </g>
                <path d="M39.336,4.696 L50.824,4.696 L50.824,6.168 L39.336,6.168 L39.336,4.696 Z M37.8,9.112 L52.248,9.112 L52.248,10.632 L44.664,10.632 C43.2773264,13.3946805 42.0720051,15.3626608 41.048,16.536 C43.6293462,16.3759992 46.2426534,16.1093352 48.888,15.736 C48.354664,14.7759952 47.7946696,13.8373379 47.208,12.92 L48.424,12.168 C49.8533405,14.2800106 50.9786626,16.1626584 51.8,17.816 L50.44,18.76 C50.098665,18.034663 49.832001,17.4906685 49.64,17.128 C46.4186506,17.5760022 42.9253522,17.9279987 39.16,18.184 L38.76,16.632 C38.9306675,16.5786664 39.053333,16.5306669 39.128,16.488 C40.1093382,15.7519963 41.3893254,13.8000158 42.968,10.632 L37.8,10.632 L37.8,9.112 Z M63.424,14.44 C63.6693346,15.6453394 63.887999,16.8879936 64.08,18.168 L63.264,18.344 L63.168,17.384 C62.4319963,17.6400013 61.6906704,17.8426659 60.944,17.992 L60.768,16.824 C61.1626686,16.6639992 61.36,16.3600022 61.36,15.912 L61.36,6.216 L60.72,6.28 L60.72,11.272 C60.6666664,14.1520144 60.2293374,16.5946566 59.408,18.6 L58.352,17.512 C59.1306706,15.7306578 59.5359998,13.6506786 59.568,11.272 L59.568,5.144 C61.509343,4.9839992 62.975995,4.69600208 63.968,4.28 L64.928,5.368 C64.7253323,5.44266704 64.4213354,5.54399936 64.016,5.672 C64.0800003,10.4080237 64.741327,14.3599842 66,17.528 L65.056,18.456 C63.7866603,14.9679826 63.1200003,10.7920243 63.056,5.928 L62.4,6.056 L62.4,16.552 C62.5813342,16.4986664 62.7893322,16.4240005 63.024,16.328 C62.949333,15.7306637 62.8693338,15.1706693 62.784,14.648 L63.424,14.44 Z M57.168,3.88 C57.2853339,4.2533352 57.439999,4.84532928 57.632,5.656 L59.184,5.656 L59.184,7 L54.768,7 L54.768,5.656 L56.208,5.656 C56.0586659,5.0693304 55.8933342,4.55200224 55.712,4.104 L57.168,3.88 Z M54.688,11.368 L54.688,9.992 L57.152,9.992 C57.4080013,9.07466208 57.5946661,8.18400432 57.712,7.32 L58.928,7.496 C58.7999994,8.37067104 58.6080013,9.20266272 58.352,9.992 L59.2,9.992 L59.2,11.368 L57.632,11.368 C57.6106666,12.0720035 57.5893334,12.5999982 57.568,12.952 L58.8,12.952 L58.8,14.28 L57.456,14.28 L57.376,14.92 C57.1199987,16.4240075 56.5706709,17.6613285 55.728,18.632 L54.752,17.448 C55.3920032,16.647996 55.807999,15.6666725 56,14.504 L56.032,14.28 L54.944,14.28 L54.944,12.952 L56.176,12.952 C56.2186669,12.3119968 56.2453333,11.7840021 56.256,11.368 L54.688,11.368 Z M66.416,11.336 L64.736,11.336 L64.736,9.96 L67.296,9.96 C67.5306678,9.159996 67.7173326,8.26400496 67.856,7.272 L69.072,7.432 C68.9439994,8.3386712 68.7520013,9.18132944 68.496,9.96 L69.456,9.96 L69.456,11.336 L67.808,11.336 L67.808,13.048 L69.2,13.048 L69.2,14.392 L67.808,14.392 L67.808,18.52 L66.416,18.52 L66.416,14.392 L65.12,14.392 L65.12,13.048 L66.416,13.048 L66.416,11.336 Z M67.44,3.864 C67.5786674,4.35466912 67.7279992,4.95199648 67.888,5.656 L69.424,5.656 L69.424,7 L64.704,7 L64.704,5.656 L66.448,5.656 C66.3199994,5.15466416 66.1653342,4.637336 65.984,4.104 L67.44,3.864 Z M66.112,7.256 C66.3893347,7.8960032 66.6293323,8.58399632 66.832,9.32 L65.76,9.768 C65.5466656,8.99999616 65.2960014,8.31200304 65.008,7.704 L66.112,7.256 Z M56.016,7.24 C56.282668,7.8800032 56.5333322,8.6266624 56.768,9.48 L55.664,9.96 C55.3866653,9.02132864 55.1253346,8.26400288 54.88,7.688 L56.016,7.24 Z M71.928,6.856 L73.976,6.856 L73.976,3.912 L75.496,3.912 L75.496,6.856 L77.032,6.856 L77.032,8.312 L75.496,8.312 L75.496,9.496 C76.0400027,10.1146698 76.5359978,10.6959973 76.984,11.24 C77.8906712,10.2053282 78.6586635,9.01600672 79.288,7.672 L80.552,8.296 C80.0719976,9.3093384 79.5333363,10.2479957 78.936,11.112 L80.104,10.76 C80.296001,11.9866728 80.791996,13.0906618 81.592,14.072 C82.2106698,13.1119952 82.6426654,11.9706733 82.888,10.648 L84.328,10.936 C84.0186651,12.6000083 83.4800038,14.0133275 82.712,15.176 C83.704005,16.0080042 84.962659,16.7119971 86.488,17.288 L85.704,18.648 C84.103992,18.0079968 82.7920051,17.2400045 81.768,16.344 C80.6479944,17.4640056 79.2400085,18.2639976 77.544,18.744 L76.664,17.384 C78.3173416,16.9573312 79.6506616,16.2373384 80.664,15.224 C79.7146619,14.082661 79.1013347,12.7653408 78.824,11.272 C78.6533325,11.4960011 78.3600021,11.8639974 77.944,12.376 L77.608,12.136 L76.808,13.288 C76.2426638,12.1893278 75.8053349,11.3840026 75.496,10.872 L75.496,18.568 L73.976,18.568 L73.976,11.048 C73.4959976,12.4240069 72.8880037,13.6879942 72.152,14.84 L71.496,13.192 C72.6160056,11.7519928 73.4213309,10.1253424 73.912,8.312 L71.928,8.312 L71.928,6.856 Z M77.352,5.816 L81.064,5.816 C80.8079987,5.15466336 80.5200016,4.54666944 80.2,3.992 L81.736,3.736 C82.002668,4.30133616 82.2906651,4.99466256 82.6,5.816 L86.056,5.816 L86.056,7.288 L77.352,7.288 L77.352,5.816 Z M83.704,7.592 C84.8986726,9.05334064 85.8159968,10.3226613 86.456,11.4 L85.192,12.264 C84.5519968,11.1013275 83.661339,9.78934064 82.52,8.328 L83.704,7.592 Z M102.704,4.488 L102.704,18.648 L101.184,18.648 L101.184,18.072 L90.816,18.072 L90.816,18.648 L89.296,18.648 L89.296,4.488 L102.704,4.488 Z M90.816,16.728 L101.184,16.728 L101.184,5.864 L90.816,5.864 L90.816,16.728 Z M92.592,7.032 L99.424,7.032 L99.424,8.376 L92.592,8.376 L92.592,7.032 Z M91.68,9.768 L100.32,9.768 L100.32,11.112 L97.888,11.112 L97.888,14.072 C97.888,14.3920016 98.0266653,14.552 98.304,14.552 L98.736,14.552 C98.9173342,14.552 99.0719994,14.5040005 99.2,14.408 C99.3493341,14.333333 99.4559997,13.8373379 99.52,12.92 L100.768,13.336 C100.629333,14.5413394 100.448001,15.2559989 100.224,15.48 C100.010666,15.6613342 99.6106696,15.7626666 99.024,15.784 L97.856,15.784 C97.4186645,15.784 97.0880011,15.6560013 96.864,15.4 C96.6186654,15.1439987 96.496,14.8080021 96.496,14.392 L96.496,11.112 L95.28,11.112 C95.1199992,12.3813397 94.810669,13.3626632 94.352,14.056 C93.7973306,14.8986709 92.9546723,15.5599976 91.824,16.04 L91.12,14.824 C92.0586714,14.4506648 92.7519978,13.9280034 93.2,13.256 C93.5520018,12.7119973 93.7919994,11.9973378 93.92,11.112 L91.68,11.112 L91.68,9.768 Z" id="云瓣校园"></path>
                <path d="M38.03,22.716 L38.816,22.716 L40.052,24.678 L41.288,22.716 L42.074,22.716 L40.376,25.29 L40.376,27 L39.728,27 L39.728,25.29 L38.03,22.716 Z M43.394,22.716 L44.048,22.716 L44.048,25.38 C44.048,25.7680019 44.1359991,26.0519991 44.312,26.232 C44.4920009,26.4200009 44.7759981,26.514 45.164,26.514 C45.5480019,26.514 45.8299991,26.4200009 46.01,26.232 C46.1860009,26.0439991 46.274,25.7600019 46.274,25.38 L46.274,22.716 L46.928,22.716 L46.928,25.368 C46.928,25.9240028 46.7740015,26.3499985 46.466,26.646 C46.1539984,26.9380015 45.7200028,27.084 45.164,27.084 C44.5959972,27.084 44.1620015,26.9400014 43.862,26.652 C43.5499984,26.3519985 43.394,25.9240028 43.394,25.368 L43.394,22.716 Z M48.638,22.716 L49.298,22.716 L51.488,25.902 L51.512,25.902 L51.512,22.716 L52.166,22.716 L52.166,27 L51.53,27 L49.316,23.778 L49.292,23.778 L49.292,27 L48.638,27 L48.638,22.716 Z M53.882,22.716 L55.838,22.716 C56.2580021,22.716 56.5859988,22.815999 56.822,23.016 C57.0500012,23.208001 57.164,23.4679984 57.164,23.796 C57.164,24.0360012 57.1040006,24.2399992 56.984,24.408 C56.8599994,24.5680008 56.6940011,24.6859996 56.486,24.762 C56.7700014,24.8180003 56.9839993,24.9319991 57.128,25.104 C57.2720007,25.2760009 57.344,25.5079985 57.344,25.8 C57.344,26.2280021 57.1960015,26.543999 56.9,26.748 C56.6479988,26.9160008 56.2940023,27 55.838,27 L53.882,27 L53.882,22.716 Z M54.536,23.256 L54.536,24.534 L55.664,24.534 C55.9600015,24.534 56.1759993,24.4820005 56.312,24.378 C56.4440007,24.2699995 56.51,24.1020011 56.51,23.874 C56.51,23.6579989 56.4440007,23.5020005 56.312,23.406 C56.1839994,23.3059995 55.9720015,23.256 55.676,23.256 L54.536,23.256 Z M54.536,25.068 L54.536,26.46 L55.748,26.46 C56.0160014,26.46 56.2319992,26.4160004 56.396,26.328 C56.592001,26.2119994 56.69,26.0320012 56.69,25.788 C56.69,25.5359987 56.6140008,25.3520006 56.462,25.236 C56.3139993,25.1239994 56.0820016,25.068 55.766,25.068 L54.536,25.068 Z M60.104,22.716 L60.848,22.716 L62.498,27 L61.796,27 L61.394,25.896 L59.552,25.896 L59.15,27 L58.454,27 L60.104,22.716 Z M59.75,25.356 L61.196,25.356 L60.488,23.418 L60.464,23.418 L59.75,25.356 Z M63.788,22.716 L64.448,22.716 L66.638,25.902 L66.662,25.902 L66.662,22.716 L67.316,22.716 L67.316,27 L66.68,27 L64.466,23.778 L64.442,23.778 L64.442,27 L63.788,27 L63.788,22.716 Z M73.76,22.632 C74.2640026,22.632 74.6759984,22.7619987 74.996,23.022 C75.3080016,23.2740013 75.4979997,23.6179978 75.566,24.054 L74.93,24.054 C74.8579997,23.7619985 74.7200011,23.5480007 74.516,23.412 C74.315999,23.2759993 74.0600016,23.208 73.748,23.208 C73.2839977,23.208 72.9360012,23.3659984 72.704,23.682 C72.4839989,23.9660014 72.374,24.3599975 72.374,24.864 C72.374,25.3760026 72.481999,25.7739986 72.698,26.058 C72.9260012,26.3580015 73.2799976,26.508 73.76,26.508 C74.0760016,26.508 74.335999,26.4300008 74.54,26.274 C74.7560011,26.1059992 74.9059996,25.8540017 74.99,25.518 L75.626,25.518 C75.5299996,26.0180025 75.3060018,26.4079986 74.954,26.688 C74.6259984,26.9520013 74.2300024,27.084 73.766,27.084 C73.0659965,27.084 72.5380018,26.8600022 72.182,26.412 C71.8739985,26.0319981 71.72,25.5160033 71.72,24.864 C71.72,24.2239968 71.8799984,23.706002 72.2,23.31 C72.5560018,22.8579977 73.0759966,22.632 73.76,22.632 Z M78.386,22.716 L79.13,22.716 L80.78,27 L80.078,27 L79.676,25.896 L77.834,25.896 L77.432,27 L76.736,27 L78.386,22.716 Z M78.032,25.356 L79.478,25.356 L78.77,23.418 L78.746,23.418 L78.032,25.356 Z M82.07,22.716 L82.844,22.716 L84.338,26.148 L84.356,26.148 L85.844,22.716 L86.618,22.716 L86.618,27 L85.964,27 L85.964,23.94 L85.94,23.94 L84.626,27 L84.062,27 L82.748,23.94 L82.724,23.94 L82.724,27 L82.07,27 L82.07,22.716 Z M88.328,22.716 L90.104,22.716 C91.1240051,22.716 91.634,23.1499957 91.634,24.018 C91.634,24.8940044 91.1200052,25.332 90.092,25.332 L88.982,25.332 L88.982,27 L88.328,27 L88.328,22.716 Z M88.982,23.274 L88.982,24.774 L90.05,24.774 C90.3740017,24.774 90.6099993,24.7140006 90.758,24.594 C90.9060008,24.4699994 90.98,24.2780013 90.98,24.018 C90.98,23.7499987 90.9040008,23.5620005 90.752,23.454 C90.6039993,23.3339994 90.3700016,23.274 90.05,23.274 L88.982,23.274 Z M93.1100001,22.716 L93.7640001,22.716 L93.7640001,25.38 C93.7640001,25.7680019 93.8519992,26.0519991 94.0280001,26.232 C94.208001,26.4200009 94.4919981,26.514 94.8800001,26.514 C95.264002,26.514 95.5459992,26.4200009 95.7260001,26.232 C95.9020009,26.0439991 95.9900001,25.7600019 95.9900001,25.38 L95.9900001,22.716 L96.6440001,22.716 L96.6440001,25.368 C96.6440001,25.9240028 96.4900016,26.3499985 96.1820001,26.646 C95.8699985,26.9380015 95.4360028,27.084 94.8800001,27.084 C94.3119972,27.084 93.8780016,26.9400014 93.5780001,26.652 C93.2659985,26.3519985 93.1100001,25.9240028 93.1100001,25.368 L93.1100001,22.716 Z M99.8540001,22.632 C100.358003,22.632 100.747999,22.7379989 101.024,22.95 C101.324002,23.1700011 101.494,23.5139977 101.534,23.982 L100.886,23.982 C100.826,23.6979986 100.714001,23.4980006 100.55,23.382 C100.385999,23.2579994 100.142002,23.196 99.8180001,23.196 C99.5379987,23.196 99.3220008,23.2379996 99.1700001,23.322 C98.9859991,23.4180005 98.8940001,23.5739989 98.8940001,23.79 C98.8940001,23.982001 98.999999,24.1339994 99.2120001,24.246 C99.3160006,24.3060003 99.5639981,24.3939994 99.9560001,24.51 C100.548003,24.6940009 100.921999,24.8339995 101.078,24.93 C101.446002,25.1540011 101.63,25.461998 101.63,25.854 C101.63,26.2340019 101.480002,26.5359989 101.18,26.76 C100.879999,26.9760011 100.460003,27.084 99.9200001,27.084 C99.4039975,27.084 98.9960016,26.980001 98.6960001,26.772 C98.3439983,26.5199987 98.1500002,26.1240027 98.1140001,25.584 L98.7620001,25.584 C98.8100003,25.9240017 98.9299991,26.1659993 99.1220001,26.31 C99.2980009,26.4420007 99.5639983,26.508 99.9200001,26.508 C100.236002,26.508 100.493999,26.4520006 100.694,26.34 C100.886001,26.2319995 100.982,26.082001 100.982,25.89 C100.982,25.6539988 100.846001,25.4660007 100.574,25.326 C100.474,25.2779998 100.190002,25.1820007 99.7220001,25.038 C99.1859974,24.8659991 98.8580007,24.7480003 98.7380001,24.684 C98.4099984,24.487999 98.2460001,24.2020019 98.2460001,23.826 C98.2460001,23.4499981 98.4039985,23.1540011 98.7200001,22.938 C99.0200016,22.733999 99.3979978,22.632 99.8540001,22.632 Z" id="YUNBAN-CAMPUS"></path>
                <path d="M126.42,22.716 L129.498,22.716 L129.498,23.274 L127.074,23.274 L127.074,24.522 L129.354,24.522 L129.354,25.08 L127.074,25.08 L127.074,26.442 L129.6,26.442 L129.6,27 L126.42,27 L126.42,22.716 Z M130.868,22.632 L131.504,22.632 L131.504,27 L130.868,27 L130.868,22.632 Z M134.2,23.814 C134.712003,23.814 135.097999,23.9859983 135.358,24.33 C135.602001,24.6460016 135.726,25.0779973 135.73,25.626 L133.378,25.626 C133.402,25.9340015 133.483999,26.1659992 133.624,26.322 C133.772001,26.4820008 133.969999,26.562 134.218,26.562 C134.438001,26.562 134.617999,26.5100005 134.758,26.406 C134.858,26.3299996 134.952,26.196001 135.04,26.004 L135.676,26.004 C135.6,26.3000015 135.458001,26.5419991 135.25,26.73 C134.977999,26.9660012 134.636002,27.084 134.224,27.084 C133.763998,27.084 133.402001,26.9420014 133.138,26.658 C132.849999,26.3579985 132.706,25.9540025 132.706,25.446 C132.706,24.9819977 132.841999,24.5960015 133.114,24.288 C133.378001,23.9719984 133.739998,23.814 134.2,23.814 Z M134.218,24.336 C133.977999,24.336 133.788001,24.4059993 133.648,24.546 C133.511999,24.6900007 133.426,24.8899987 133.39,25.146 L135.064,25.146 C135.004,24.6059973 134.722002,24.336 134.218,24.336 Z M138.24,23.814 C138.636002,23.814 138.953999,23.9039991 139.194,24.084 C139.438001,24.280001 139.59,24.5679981 139.65,24.948 L139.02,24.948 C138.976,24.7319989 138.890001,24.5780005 138.762,24.486 C138.633999,24.3859995 138.460001,24.336 138.24,24.336 C137.975999,24.336 137.770001,24.433999 137.622,24.63 C137.469999,24.8180009 137.394,25.0899982 137.394,25.446 C137.394,25.7980018 137.467999,26.071999 137.616,26.268 C137.756001,26.464001 137.961999,26.562 138.234,26.562 C138.706002,26.562 138.972,26.3260024 139.032,25.854 L139.662,25.854 C139.59,26.2660021 139.432001,26.575999 139.188,26.784 C138.943999,26.984001 138.624002,27.084 138.228,27.084 C137.755998,27.084 137.388001,26.9280016 137.124,26.616 C136.867999,26.3199985 136.74,25.9320024 136.74,25.452 C136.74,24.9839977 136.865999,24.6000015 137.118,24.3 C137.390001,23.9759984 137.763998,23.814 138.24,23.814 Z M141.74,22.896 L141.74,23.898 L142.448,23.898 L142.448,24.426 L141.74,24.426 L141.74,26.226 C141.74,26.3060004 141.758,26.3679998 141.794,26.412 C141.834,26.4520002 141.89,26.472 141.962,26.472 L142.37,26.472 L142.37,27 L141.86,27 C141.591999,27 141.398,26.9300007 141.278,26.79 C141.161999,26.6619994 141.104,26.4740012 141.104,26.226 L141.104,24.426 L140.528,24.426 L140.528,23.898 L141.104,23.898 L141.104,23.16 L141.74,22.896 Z M144.988,23.814 C145.152001,23.814 145.285999,23.8399997 145.39,23.892 L145.39,24.528 C145.245999,24.4839998 145.096001,24.462 144.94,24.462 C144.747999,24.462 144.576001,24.5399992 144.424,24.696 C144.263999,24.8600008 144.184,25.0799986 144.184,25.356 L144.184,27 L143.548,27 L143.548,23.898 L144.184,23.898 L144.184,24.366 C144.26,24.2019992 144.359999,24.0760004 144.484,23.988 C144.624001,23.8719994 144.791999,23.814 144.988,23.814 Z M147.798,23.814 C148.270002,23.814 148.645998,23.9699984 148.926,24.282 C149.206001,24.5940016 149.346,24.9839977 149.346,25.452 C149.346,25.9240024 149.208001,26.3099985 148.932,26.61 C148.639998,26.9260016 148.262002,27.084 147.798,27.084 C147.333998,27.084 146.956001,26.9260016 146.664,26.61 C146.387998,26.3099985 146.25,25.9240024 146.25,25.452 C146.25,24.9759976 146.389998,24.5860015 146.67,24.282 C146.954001,23.9699984 147.329998,23.814 147.798,23.814 Z M147.798,24.336 C147.501998,24.336 147.274001,24.4519988 147.114,24.684 C146.973999,24.876001 146.904,25.1319984 146.904,25.452 C146.904,25.7680016 146.973999,26.021999 147.114,26.214 C147.278001,26.4460012 147.505998,26.562 147.798,26.562 C148.086001,26.562 148.315999,26.4460012 148.488,26.214 C148.632001,26.009999 148.704,25.7560015 148.704,25.452 C148.704,25.1359984 148.632001,24.880001 148.488,24.684 C148.319999,24.4519988 148.090001,24.336 147.798,24.336 Z M152.114,23.814 C152.886004,23.814 153.272,24.2379958 153.272,25.086 L153.272,27 L152.636,27 L152.636,25.14 C152.636,24.6119974 152.394002,24.348 151.91,24.348 C151.721999,24.348 151.564,24.4119994 151.436,24.54 C151.287999,24.6880007 151.202,24.8859988 151.178,25.134 L151.178,27 L150.542,27 L150.542,23.898 L151.178,23.898 L151.178,24.282 C151.294,24.1299992 151.431999,24.0140004 151.592,23.934 C151.740001,23.8539996 151.913999,23.814 152.114,23.814 Z M155.038,22.656 C155.17,22.656 155.275999,22.6959996 155.356,22.776 C155.44,22.8520004 155.482,22.9539994 155.482,23.082 C155.482,23.2020006 155.438,23.3059996 155.35,23.394 C155.261999,23.4740004 155.158,23.514 155.038,23.514 C154.917999,23.514 154.814,23.4740004 154.726,23.394 C154.641999,23.3099996 154.6,23.2060006 154.6,23.082 C154.6,22.9539994 154.641999,22.8520004 154.726,22.776 C154.806,22.6959996 154.909999,22.656 155.038,22.656 Z M154.72,23.898 L155.356,23.898 L155.356,27 L154.72,27 L154.72,23.898 Z M158.184,23.814 C158.580002,23.814 158.897999,23.9039991 159.138,24.084 C159.382001,24.280001 159.533999,24.5679981 159.594,24.948 L158.964,24.948 C158.92,24.7319989 158.834,24.5780005 158.706,24.486 C158.577999,24.3859995 158.404001,24.336 158.184,24.336 C157.919998,24.336 157.714001,24.433999 157.566,24.63 C157.413999,24.8180009 157.338,25.0899982 157.338,25.446 C157.338,25.7980018 157.411999,26.071999 157.56,26.268 C157.7,26.464001 157.905998,26.562 158.178,26.562 C158.650002,26.562 158.915999,26.3260024 158.976,25.854 L159.606,25.854 C159.533999,26.2660021 159.376001,26.575999 159.132,26.784 C158.887999,26.984001 158.568002,27.084 158.172,27.084 C157.699997,27.084 157.332001,26.9280016 157.068,26.616 C156.811998,26.3199985 156.684,25.9320024 156.684,25.452 C156.684,24.9839977 156.809999,24.6000015 157.062,24.3 C157.334001,23.9759984 157.707997,23.814 158.184,23.814 Z M165.25,22.632 C165.754002,22.632 166.165998,22.7619987 166.486,23.022 C166.798001,23.2740013 166.987999,23.6179978 167.056,24.054 L166.42,24.054 C166.347999,23.7619985 166.210001,23.5480007 166.006,23.412 C165.805999,23.2759993 165.550001,23.208 165.238,23.208 C164.773997,23.208 164.426001,23.3659984 164.194,23.682 C163.973999,23.9660014 163.864,24.3599975 163.864,24.864 C163.864,25.3760026 163.971999,25.7739986 164.188,26.058 C164.416001,26.3580015 164.769997,26.508 165.25,26.508 C165.566001,26.508 165.825999,26.4300008 166.03,26.274 C166.246001,26.1059992 166.395999,25.8540017 166.48,25.518 L167.116,25.518 C167.019999,26.0180025 166.796001,26.4079986 166.444,26.688 C166.115998,26.9520013 165.720002,27.084 165.256,27.084 C164.555996,27.084 164.028001,26.8600022 163.672,26.412 C163.363998,26.0319981 163.21,25.5160033 163.21,24.864 C163.21,24.2239968 163.369998,23.706002 163.69,23.31 C164.046001,22.8579977 164.565996,22.632 165.25,22.632 Z M169.704,23.814 C170.160002,23.814 170.495999,23.9279989 170.712,24.156 C170.900001,24.356001 170.994,24.6439981 170.994,25.02 L170.994,27 L170.406,27 L170.406,26.562 C170.289999,26.7140008 170.138001,26.8399995 169.95,26.94 C169.745999,27.0360005 169.508001,27.084 169.236,27.084 C168.915998,27.084 168.662001,27.0020008 168.474,26.838 C168.281999,26.6699992 168.186,26.4480014 168.186,26.172 C168.186,25.779998 168.339998,25.4900009 168.648,25.302 C168.908001,25.1419992 169.247998,25.062 169.668,25.062 L170.364,25.056 L170.364,24.978 C170.364,24.5459978 170.130002,24.33 169.662,24.33 C169.441999,24.33 169.274,24.3699996 169.158,24.45 C169.017999,24.5420005 168.936,24.6779991 168.912,24.858 L168.282,24.858 C168.33,24.4899982 168.485998,24.2180009 168.75,24.042 C168.974001,23.8899992 169.291998,23.814 169.704,23.814 Z M170.364,25.542 L169.71,25.548 C169.129997,25.548 168.84,25.749998 168.84,26.154 C168.84,26.2780006 168.885999,26.3799996 168.978,26.46 C169.07,26.5400004 169.203999,26.58 169.38,26.58 C169.664001,26.58 169.901999,26.5000008 170.094,26.34 C170.274001,26.1759992 170.364,25.9640013 170.364,25.704 L170.364,25.542 Z M173.798,23.814 C174.258002,23.814 174.583999,23.9879983 174.776,24.336 C174.916,24.143999 175.063999,24.0080004 175.22,23.928 C175.36,23.8519996 175.535999,23.814 175.748,23.814 C176.068001,23.814 176.331999,23.9199989 176.54,24.132 C176.748001,24.3480011 176.852,24.6259983 176.852,24.966 L176.852,27 L176.216,27 L176.216,25.074 C176.216,24.8179987 176.162,24.6340006 176.054,24.522 C175.949999,24.4059994 175.774001,24.348 175.526,24.348 C175.349999,24.348 175.202,24.4139993 175.082,24.546 C174.961999,24.6780007 174.902,24.8599988 174.902,25.092 L174.902,27 L174.266,27 L174.266,25.08 C174.266,24.5919976 174.054002,24.348 173.63,24.348 C173.421999,24.348 173.258,24.4259992 173.138,24.582 C173.009999,24.7260007 172.946,24.9099989 172.946,25.134 L172.946,27 L172.31,27 L172.31,23.898 L172.946,23.898 L172.946,24.24 C173.194001,23.9559986 173.477998,23.814 173.798,23.814 Z M179.716,23.814 C180.168002,23.814 180.525998,23.9759984 180.79,24.3 C181.030001,24.6000015 181.15,24.9879976 181.15,25.464 C181.15,25.9160023 181.032001,26.2939985 180.796,26.598 C180.543998,26.9220016 180.194002,27.084 179.746,27.084 C179.365998,27.084 179.050001,26.9040018 178.798,26.544 L178.798,28.188 L178.162,28.188 L178.162,23.898 L178.756,23.898 L178.756,24.27 C178.972001,23.9659985 179.291998,23.814 179.716,23.814 Z M179.62,24.33 C179.339998,24.33 179.126,24.4399989 178.978,24.66 C178.845999,24.852001 178.78,25.1079984 178.78,25.428 L178.78,25.482 C178.78,25.8180017 178.861999,26.085999 179.026,26.286 C179.17,26.4740009 179.361998,26.568 179.602,26.568 C179.914001,26.568 180.143999,26.466001 180.292,26.262 C180.428,26.065999 180.496,25.8000017 180.496,25.464 C180.496,25.1319983 180.434,24.866001 180.31,24.666 C180.161999,24.4419989 179.932001,24.33 179.62,24.33 Z M182.34,23.898 L182.976,23.898 L182.976,25.788 C182.976,26.0560013 183.031999,26.2479994 183.144,26.364 C183.256,26.4880006 183.433998,26.55 183.678,26.55 C183.838,26.55 183.991999,26.4820007 184.14,26.346 C184.284,26.2059993 184.383999,26.0220011 184.44,25.794 L184.44,23.898 L185.076,23.898 L185.076,27 L184.44,27 L184.44,26.58 C184.175998,26.9160017 183.850002,27.084 183.462,27.084 C182.713996,27.084 182.34,26.6660042 182.34,25.83 L182.34,23.898 Z M187.55,23.814 C188.358004,23.814 188.797999,24.1399967 188.87,24.792 L188.252,24.792 C188.203999,24.6239992 188.13,24.5080003 188.03,24.444 C187.921999,24.3719996 187.758001,24.336 187.538,24.336 C187.337999,24.336 187.194,24.3639997 187.106,24.42 C186.993999,24.4800003 186.938,24.5719994 186.938,24.696 C186.938,24.8000005 187.021999,24.8919996 187.19,24.972 C187.294,25.0160002 187.501998,25.0779996 187.814,25.158 C188.162001,25.2420004 188.423999,25.3399994 188.6,25.452 C188.848001,25.6080008 188.972,25.8239986 188.972,26.1 C188.972,26.7560033 188.512004,27.084 187.592,27.084 C186.743995,27.084 186.284,26.7220036 186.212,25.998 L186.836,25.998 C186.872,26.206001 186.945999,26.3539996 187.058,26.442 C187.17,26.5220004 187.341998,26.562 187.574,26.562 C188.070002,26.562 188.318,26.4220014 188.318,26.142 C188.318,25.9899992 188.226001,25.8720004 188.042,25.788 C187.945999,25.7399998 187.738001,25.6800004 187.418,25.608 C187.049998,25.5239996 186.794,25.4340005 186.65,25.338 C186.409998,25.1859992 186.29,24.9780013 186.29,24.714 C186.29,24.4299986 186.405998,24.2100008 186.638,24.054 C186.870001,23.8939992 187.173998,23.814 187.55,23.814 Z M194.61,22.632 C195.114002,22.632 195.525998,22.7619987 195.846,23.022 C196.158001,23.2740013 196.347999,23.6179978 196.416,24.054 L195.78,24.054 C195.707999,23.7619985 195.570001,23.5480007 195.366,23.412 C195.165999,23.2759993 194.910001,23.208 194.598,23.208 C194.133997,23.208 193.786001,23.3659984 193.554,23.682 C193.333998,23.9660014 193.224,24.3599975 193.224,24.864 C193.224,25.3760026 193.331998,25.7739986 193.548,26.058 C193.776001,26.3580015 194.129997,26.508 194.61,26.508 C194.926001,26.508 195.185999,26.4300008 195.39,26.274 C195.606001,26.1059992 195.755999,25.8540017 195.84,25.518 L196.476,25.518 C196.379999,26.0180025 196.156001,26.4079986 195.804,26.688 C195.475998,26.9520013 195.080002,27.084 194.616,27.084 C193.915996,27.084 193.388001,26.8600022 193.032,26.412 C192.723998,26.0319981 192.57,25.5160033 192.57,24.864 C192.57,24.2239968 192.729998,23.706002 193.05,23.31 C193.406001,22.8579977 193.925996,22.632 194.61,22.632 Z M199.064,23.814 C199.520002,23.814 199.855998,23.9279989 200.072,24.156 C200.26,24.356001 200.354,24.6439981 200.354,25.02 L200.354,27 L199.766,27 L199.766,26.562 C199.649999,26.7140008 199.498,26.8399995 199.31,26.94 C199.105998,27.0360005 198.868001,27.084 198.596,27.084 C198.275998,27.084 198.022,27.0020008 197.834,26.838 C197.641999,26.6699992 197.546,26.4480014 197.546,26.172 C197.546,25.779998 197.699998,25.4900009 198.008,25.302 C198.268001,25.1419992 198.607997,25.062 199.028,25.062 L199.724,25.056 L199.724,24.978 C199.724,24.5459978 199.490002,24.33 199.022,24.33 C198.801998,24.33 198.634,24.3699996 198.518,24.45 C198.377999,24.5420005 198.296,24.6779991 198.272,24.858 L197.642,24.858 C197.69,24.4899982 197.845998,24.2180009 198.11,24.042 C198.334001,23.8899992 198.651997,23.814 199.064,23.814 Z M199.724,25.542 L199.07,25.548 C198.489997,25.548 198.2,25.749998 198.2,26.154 C198.2,26.2780006 198.245999,26.3799996 198.338,26.46 C198.43,26.5400004 198.563999,26.58 198.74,26.58 C199.024001,26.58 199.261999,26.5000008 199.454,26.34 C199.634,26.1759992 199.724,25.9640013 199.724,25.704 L199.724,25.542 Z M203.109999,23.814 C203.274,23.814 203.407999,23.8399997 203.511999,23.892 L203.511999,24.528 C203.367999,24.4839998 203.218,24.462 203.061999,24.462 C202.869999,24.462 202.698,24.5399992 202.545999,24.696 C202.385999,24.8600008 202.305999,25.0799986 202.305999,25.356 L202.305999,27 L201.669999,27 L201.669999,23.898 L202.305999,23.898 L202.305999,24.366 C202.382,24.2019992 202.481999,24.0760004 202.605999,23.988 C202.746,23.8719994 202.913998,23.814 203.109999,23.814 Z M206.723999,22.632 L207.359999,22.632 L207.359999,27 L206.765999,27 L206.765999,26.628 C206.545998,26.9320015 206.226002,27.084 205.805999,27.084 C205.349997,27.084 204.992001,26.9220016 204.731999,26.598 C204.491998,26.2979985 204.371999,25.9100024 204.371999,25.434 C204.371999,24.9739977 204.489998,24.5960015 204.725999,24.3 C204.978001,23.9759984 205.327997,23.814 205.775999,23.814 C206.156001,23.814 206.471998,23.9959982 206.723999,24.36 L206.723999,22.632 Z M205.919999,24.33 C205.603998,24.33 205.372,24.4359989 205.223999,24.648 C205.091999,24.8280009 205.025999,25.0899983 205.025999,25.434 C205.025999,25.7780017 205.087999,26.0439991 205.211999,26.232 C205.356,26.4560011 205.585998,26.568 205.901999,26.568 C206.170001,26.568 206.383999,26.4580011 206.543999,26.238 C206.676,26.037999 206.741999,25.7840015 206.741999,25.476 L206.741999,25.422 C206.741999,25.0899983 206.662,24.820001 206.501999,24.612 C206.349999,24.4239991 206.156001,24.33 205.919999,24.33 Z" id="Electronic-Campus-Ca"></path>
                <path d="M128.424,10.808 L128.424,12.808 L131.976,12.808 L131.976,10.808 L128.424,10.808 Z M131.976,14.232 L128.424,14.232 L128.424,15.496 L126.904,15.496 L126.904,5.976 L131.976,5.976 L131.976,3.912 L133.496,3.912 L133.496,5.976 L138.664,5.976 L138.664,14.232 L133.496,14.232 L133.496,15.848 C133.496,16.6053371 133.831997,16.984 134.504,16.984 L137.992,16.984 C138.312002,16.984 138.557332,16.8986675 138.728,16.728 C138.856001,16.5573325 138.946666,15.976005 139,14.984 L140.456,15.48 C140.36,16.8453402 140.168001,17.6826651 139.88,17.992 C139.570665,18.2693347 139.026671,18.408 138.248,18.408 L134.152,18.408 C132.701326,18.408 131.976,17.6293411 131.976,16.072 L131.976,14.232 Z M133.496,12.808 L137.16,12.808 L137.16,10.808 L133.496,10.808 L133.496,12.808 Z M137.16,9.416 L137.16,7.416 L133.496,7.416 L133.496,9.416 L137.16,9.416 Z M131.976,7.416 L128.424,7.416 L128.424,9.416 L131.976,9.416 L131.976,7.416 Z M142.96,10.584 L149.568,10.584 L149.568,8.536 C150.86934,7.77866288 152.085328,6.90400496 153.216,5.912 L144.64,5.912 L144.64,4.488 L155.264,4.488 L155.264,5.912 C154.02666,7.12800608 152.634674,8.25866144 151.088,9.304 L151.088,10.584 L157.04,10.584 L157.04,12.072 L151.088,12.072 L151.088,16.952 C151.088,18.0080053 150.570672,18.536 149.536,18.536 L146.72,18.536 L146.304,17.064 C147.104004,17.0960002 147.973329,17.112 148.912,17.112 C149.349336,17.112 149.568,16.8986688 149.568,16.472 L149.568,12.072 L142.96,12.072 L142.96,10.584 Z M159.928,6.856 L161.976,6.856 L161.976,3.912 L163.496,3.912 L163.496,6.856 L165.032,6.856 L165.032,8.312 L163.496,8.312 L163.496,9.496 C164.040003,10.1146698 164.535998,10.6959973 164.984,11.24 C165.890671,10.2053282 166.658664,9.01600672 167.288,7.672 L168.552,8.296 C168.071998,9.3093384 167.533336,10.2479957 166.936,11.112 L168.104,10.76 C168.296001,11.9866728 168.791996,13.0906618 169.592,14.072 C170.21067,13.1119952 170.642665,11.9706733 170.888,10.648 L172.328,10.936 C172.018665,12.6000083 171.480004,14.0133275 170.712,15.176 C171.704005,16.0080042 172.962659,16.7119971 174.488,17.288 L173.704,18.648 C172.103992,18.0079968 170.792005,17.2400045 169.768,16.344 C168.647994,17.4640056 167.240008,18.2639976 165.544,18.744 L164.664,17.384 C166.317342,16.9573312 167.650662,16.2373384 168.664,15.224 C167.714662,14.082661 167.101335,12.7653408 166.824,11.272 C166.653332,11.4960011 166.360002,11.8639974 165.944,12.376 L165.608,12.136 L164.808,13.288 C164.242664,12.1893278 163.805335,11.3840026 163.496,10.872 L163.496,18.568 L161.976,18.568 L161.976,11.048 C161.495998,12.4240069 160.888004,13.6879942 160.152,14.84 L159.496,13.192 C160.616006,11.7519928 161.421331,10.1253424 161.912,8.312 L159.928,8.312 L159.928,6.856 Z M165.352,5.816 L169.064,5.816 C168.807999,5.15466336 168.520002,4.54666944 168.2,3.992 L169.736,3.736 C170.002668,4.30133616 170.290665,4.99466256 170.6,5.816 L174.056,5.816 L174.056,7.288 L165.352,7.288 L165.352,5.816 Z M171.704,7.592 C172.898673,9.05334064 173.815997,10.3226613 174.456,11.4 L173.192,12.264 C172.551997,11.1013275 171.661339,9.78934064 170.52,8.328 L171.704,7.592 Z M190.704,4.488 L190.704,18.648 L189.184,18.648 L189.184,18.072 L178.816,18.072 L178.816,18.648 L177.296,18.648 L177.296,4.488 L190.704,4.488 Z M178.816,16.728 L189.184,16.728 L189.184,5.864 L178.816,5.864 L178.816,16.728 Z M180.592,7.032 L187.424,7.032 L187.424,8.376 L180.592,8.376 L180.592,7.032 Z M179.68,9.768 L188.32,9.768 L188.32,11.112 L185.888,11.112 L185.888,14.072 C185.888,14.3920016 186.026665,14.552 186.304,14.552 L186.736,14.552 C186.917334,14.552 187.071999,14.5040005 187.2,14.408 C187.349334,14.333333 187.456,13.8373379 187.52,12.92 L188.768,13.336 C188.629333,14.5413394 188.448001,15.2559989 188.224,15.48 C188.010666,15.6613342 187.61067,15.7626666 187.024,15.784 L185.856,15.784 C185.418664,15.784 185.088001,15.6560013 184.864,15.4 C184.618665,15.1439987 184.496,14.8080021 184.496,14.392 L184.496,11.112 L183.28,11.112 C183.119999,12.3813397 182.810669,13.3626632 182.352,14.056 C181.797331,14.8986709 180.954672,15.5599976 179.824,16.04 L179.12,14.824 C180.058671,14.4506648 180.751998,13.9280034 181.2,13.256 C181.552002,12.7119973 181.791999,11.9973378 181.92,11.112 L179.68,11.112 L179.68,9.768 Z M199.448,3.928 L200.984,3.928 L200.984,5.752 L206.072,5.752 L206.072,7.208 L200.984,7.208 L200.984,9.272 L208.152,9.272 L208.152,10.744 L200.984,10.744 L200.984,12.152 C202.850676,12.9946709 204.727991,13.9439947 206.616,15 L205.752,16.296 C203.906657,15.1653277 202.31734,14.2853365 200.984,13.656 L200.984,18.632 L199.448,18.632 L199.448,10.744 L193.832,10.744 L193.832,9.272 L199.448,9.272 L199.448,3.928 Z" id="电子校园卡"></path>
                <rect id="LINE" x="114" y="5" width="1" height="20"></rect>
            </g>
        </g>
    </g>
</svg>