<?xml version="1.0" encoding="UTF-8"?>
<svg width="18px" height="20px" viewBox="0 0 18 20" version="1.1" xmlns="http://www.w3.org/2000/svg" xmlns:xlink="http://www.w3.org/1999/xlink">
    <!-- Generator: Sketch 50.2 (55047) - http://www.bohemiancoding.com/sketch -->
    <title>密码icon</title>
    <desc>Created with Sketch.</desc>
    <defs></defs>
    <g id="电子校园卡" stroke="none" stroke-width="1" fill="none" fill-rule="evenodd">
        <g id="A1_1登录" transform="translate(-1001.000000, -257.000000)" fill="#979797">
            <g id="login" transform="translate(960.000000, 100.000000)">
                <g id="2" transform="translate(30.000000, 147.000000)">
                    <g id="密码icon" transform="translate(11.000000, 10.000000)">
                        <path d="M2,8 L16,8 C17.1045695,8 18,8.8954305 18,10 L18,18 C18,19.1045695 17.1045695,20 16,20 L2,20 C0.8954305,20 1.3527075e-16,19.1045695 0,18 L0,10 C-1.3527075e-16,8.8954305 0.8954305,8 2,8 Z M3,10 C2.44771525,10 2,10.4477153 2,11 L2,17 C2,17.5522847 2.44771525,18 3,18 L15,18 C15.5522847,18 16,17.5522847 16,17 L16,11 C16,10.4477153 15.5522847,10 15,10 L3,10 Z" id="Combined-Shape"></path>
                        <rect id="Rectangle-6" x="8" y="12" width="2" height="4" rx="1"></rect>
                        <path d="M5,8 L13,8 L13,6 C13,3.790861 11.209139,2 9,2 C6.790861,2 5,3.790861 5,6 L5,8 Z M15,6 L15,10 L3,10 L3,6 C3,2.6862915 5.6862915,0 9,0 C12.3137085,0 15,2.6862915 15,6 Z" id="Combined-Shape" fill-rule="nonzero"></path>
                    </g>
                </g>
            </g>
        </g>
    </g>
</svg>