<?xml version="1.0" encoding="UTF-8"?>
<svg width="18px" height="20px" viewBox="0 0 18 20" version="1.1" xmlns="http://www.w3.org/2000/svg" xmlns:xlink="http://www.w3.org/1999/xlink">
    <!-- Generator: Sketch 50.2 (55047) - http://www.bohemiancoding.com/sketch -->
    <title>user</title>
    <desc>Created with Sketch.</desc>
    <defs></defs>
    <g id="电子校园卡" stroke="none" stroke-width="1" fill="none" fill-rule="evenodd">
        <g id="A1_1登录" transform="translate(-1001.000000, -197.000000)" fill="#979797" fill-rule="nonzero">
            <g id="login" transform="translate(960.000000, 100.000000)">
                <g id="1" transform="translate(30.000000, 87.000000)">
                    <path d="M11.0549288,30 C11.0186333,29.6716661 11,29.3380091 11,29 C11,24.0294373 15.0294373,20 20,20 C24.9705627,20 29,24.0294373 29,29 C29,29.3380091 28.9813667,29.6716661 28.9450712,30 L26.9291111,30 C26.975828,29.673397 27,29.3395213 27,29 C27,25.1340068 23.8659932,22 20,22 C16.1340068,22 13,25.1340068 13,29 C13,29.3395213 13.024172,29.673397 13.0708889,30 L11.0549288,30 Z M20,22 C16.6862915,22 14,19.3137085 14,16 C14,12.6862915 16.6862915,10 20,10 C23.3137085,10 26,12.6862915 26,16 C26,19.3137085 23.3137085,22 20,22 Z M20,20 C22.209139,20 24,18.209139 24,16 C24,13.790861 22.209139,12 20,12 C17.790861,12 16,13.790861 16,16 C16,18.209139 17.790861,20 20,20 Z" id="user"></path>
                </g>
            </g>
        </g>
    </g>
</svg>