<?xml version="1.0" encoding="UTF-8"?>
<svg width="18px" height="20px" viewBox="0 0 18 20" version="1.1" xmlns="http://www.w3.org/2000/svg" xmlns:xlink="http://www.w3.org/1999/xlink">
    <!-- Generator: Sketch 50.2 (55047) - http://www.bohemiancoding.com/sketch -->
    <title>验证码icon</title>
    <desc>Created with Sketch.</desc>
    <defs></defs>
    <g id="电子校园卡" stroke="none" stroke-width="1" fill="none" fill-rule="evenodd">
        <g id="A1_1登录" transform="translate(-1001.000000, -317.000000)" fill="#979797" fill-rule="nonzero">
            <g id="login" transform="translate(960.000000, 100.000000)">
                <g id="2-copy" transform="translate(30.000000, 207.000000)">
                    <path d="M23.3830268,24.9898658 C24.3064513,23.7102703 25.0622337,22.0823391 25.6176691,20.1456819 C26.0391154,18.676696 26.3136372,17.1605554 26.4674821,15.6867144 C26.4964354,15.4093404 26.5199705,15.1437284 26.5386424,14.8915276 C26.0072016,14.7862067 25.3961376,14.6452276 24.7700592,14.471134 C22.9558635,13.9666606 21.2663056,13.267879 19.7976721,12.3218082 C18.3380254,13.2608958 16.6495028,13.9589635 14.8332102,14.4653481 C14.2050223,14.6404877 13.5876386,14.783368 13.0541209,14.8899489 C13.0727405,15.1426655 13.0962555,15.4088553 13.1252295,15.6868688 C13.2787875,17.1602998 13.5534167,18.6759661 13.9755281,20.1445226 C14.533026,22.0841849 15.2884151,23.712846 16.2106268,24.9900136 C17.1313767,26.2663376 18.3800276,27.2506303 19.797403,27.859719 C21.2153931,27.2510356 22.4617998,26.2681768 23.3830268,24.9898658 Z M19.7970183,29.9999737 C17.8076266,29.326009 15.9400041,28.0333565 14.5886415,26.1601262 C13.5217883,24.6826455 12.6704344,22.8439775 12.0533487,20.6969955 C11.0115589,17.0725329 11,13.8437054 11,13.7077452 C11,13.3993168 11.2190471,13.1415874 11.5113388,13.1130907 C11.5575744,13.1090851 16.2398491,12.5855008 19.4651288,10.1137248 C19.6609207,9.96209173 19.9344893,9.96209173 20.1302812,10.1137248 C23.3729564,12.5998063 28.03795,13.1091996 28.0839567,13.1132051 C28.3762484,13.143533 28.5954099,13.3994312 28.5933499,13.7078596 C28.5933499,13.8438199 28.5799599,17.0727618 27.5401157,20.6972244 C26.9231445,22.8484408 26.0697306,24.6845911 25.0048229,26.1602406 C23.6534603,28.0354165 21.7883555,29.326009 19.7970183,29.9999737 Z M23.6258452,17.1993312 C23.8272373,17.3552476 23.959115,17.5812076 23.9903657,17.8267976 C24.0269623,18.0799384 23.9596429,18.337121 23.7825052,18.5652424 L20.0992694,22.6228793 C19.9395739,22.8315477 19.7010715,22.9653345 19.4440662,22.9923563 C19.4039411,22.9960561 19.4039411,22.9960561 19.3745775,22.9968319 C19.3581862,22.9970348 19.3581862,22.9970348 19.3468609,22.9970288 C19.1176753,22.9970288 18.8899131,22.9154848 18.7134725,22.766103 L16.3368828,20.6928318 C15.9335286,20.3514195 15.8861119,19.7446266 16.2285516,19.3434829 C16.4104926,19.1302601 16.6769801,19.0078151 16.9562057,19.0086486 C17.182931,19.0087286 17.4023012,19.089105 17.5807692,19.2401365 L19.2218203,20.6777723 L22.2937349,17.3581088 C22.616857,16.952569 23.207008,16.8799978 23.6258452,17.1993312 Z" id="验证码icon"></path>
                </g>
            </g>
        </g>
    </g>
</svg>