<?xml version="1.0" encoding="UTF-8"?>
<svg width="34px" height="28px" viewBox="0 0 34 28" version="1.1" xmlns="http://www.w3.org/2000/svg" xmlns:xlink="http://www.w3.org/1999/xlink">
    <!-- Generator: Sketch 50.2 (55047) - http://www.bohemiancoding.com/sketch -->
    <title>云瓣logo</title>
    <desc>Created with Sketch.</desc>
    <defs></defs>
    <g id="电子校园卡" stroke="none" stroke-width="1" fill="none" fill-rule="evenodd">
        <g id="A2_1概览" transform="translate(-26.000000, -18.000000)">
            <g id="侧导航">
                <g id="电子校园卡LOGO" transform="translate(26.000000, 18.000000)">
                    <g id="云瓣logo">
                        <path d="M21.2683409,25.1282051 L20.8205128,26.1436544 C21.3135666,26.4526832 21.6413366,26.6356862 22.2320686,26.8355892 L22.5239378,25.7170498 C22.2378967,25.6055097 22.1758862,25.5618111 22.0129336,25.4884168 C21.7348187,25.3631153 21.4902733,25.2445738 21.2683409,25.1282051" id="Fill-3" fill="#16A072"></path>
                        <polygon id="Fill-5" fill="#16A072" points="18.6666667 26.1304965 19.9215643 26.5353725 19.921098 23.6923077"></polygon>
                        <path d="M6.28568735,18.3358489 C6.85287403,18.4903633 8.10450793,19.245311 7.87814613,21.8334271 L7.88560604,21.8083185 C7.88187609,21.8331857 7.87907862,21.8503271 7.87907862,21.8503271 C9.02743931,19.514504 7.50328539,16.5128205 4.51255876,16.5128205 C1.30386273,16.5128205 -1.19404325,20.6591177 0.600765727,23.9167157 C1.9689608,26.3993274 5.82387198,25.7105313 5.82387198,25.7105313 C5.82387198,25.7105313 4.72959567,25.5185954 4.31626974,25.3855682 C4.10902397,25.3189338 1.43953994,24.5422576 2.16897978,20.9840808 C2.30978567,20.3582975 3.1518236,17.4836055 6.28568735,18.3358489" id="Fill-7" fill="#108EE9"></path>
                        <path d="M32.102637,22.7394488 C32.1035695,22.7382417 32.1040357,22.737276 32.1040357,22.737276 L32.1049682,22.7363102 C32.1049682,22.7363102 32.1035695,22.7382417 32.102637,22.7394488 Z M33.3414491,17.7370453 C32.2937973,14.2034942 30.1143365,13.0393249 28.9125907,12.5835074 C28.6118629,12.462793 27.2233862,12.051157 25.51017,12.4519287 C25.4735698,12.3181772 25.4204179,12.1576271 25.3535118,11.9799355 L25.3761247,11.9241655 L26.6100413,8.92996626 L28.3192944,8.42200019 C28.3192944,8.42224162 28.3239568,12.1660771 29.2613418,12.5130102 L31.3699334,12.2942758 C29.6261783,11.7500954 29.0501329,8.20568004 29.0501329,8.20495576 L29.5159114,8.06637566 L29.7359789,8.00094847 L31.1559271,7.57893103 L18.8694468,0 L4.30769231,1.46909389 L8.57103385,4.71727617 L8.89437454,8.47004451 C8.80229122,8.56178743 8.70764354,8.65256464 8.61882393,8.74623899 C6.91726389,10.5424688 5.90224918,12.6631789 5.40779668,14.8949462 C5.31571335,15.3116522 5.33459626,15.6520667 5.83371121,15.9060497 C7.1436257,16.5738416 7.84648958,17.959884 8.1460518,19.567558 C8.39479335,20.9024175 7.82294422,22.1245298 7.82294422,22.1245298 C7.82294422,22.1245298 10.8297563,18.9649519 7.90080709,14.9282633 C7.8842554,14.9050862 7.64297377,14.6559317 7.7194379,14.5033487 C8.88854649,12.1887714 9.90589242,9.84546405 11.8788069,8.97028486 C16.4967275,6.92272771 20.3987294,8.79983617 20.519953,8.85415764 C23.3640457,10.2585486 24.9313272,13.3990537 24.9432165,13.3966394 C29.0338144,12.5460859 30.4815042,16.3835958 30.5090126,16.452403 C30.5111107,16.4572315 30.5125094,16.4606115 30.5139082,16.465923 C31.311886,18.9753333 31.7433954,23.0658605 28.5062585,25.4485207 C27.7656288,25.9434496 27.0730223,26.2727584 26.4331014,26.4835257 L26.6517702,27.9132667 C26.9788408,27.8659467 27.306844,27.8012438 27.6306509,27.7179509 C27.769825,27.687048 31.0577826,26.9374118 32.7113194,23.9217254 C33.6522012,22.2063741 33.8610789,20.130087 33.3402835,17.7355967 L33.3414491,17.7370453 Z" id="Fill-9" fill="#108EE9"></path>
                        <polygon id="Fill-1" fill="#16A072" points="18.6783152 22.1431802 19.4187118 19.3846154 6.46153846 24.3553917"></polygon>
                        <polygon id="Fill-2" fill="#16A072" points="6.46153846 24.8707214 16.7035358 27.6884362 18.6783152 23.6923077"></polygon>
                        <path d="M23.8464016,25.8461538 L23.6923077,26.9651761 C24.3280323,27.0953062 24.8700418,27.1674933 25.5694089,27.1691833 L25.5288456,25.9473125 C24.8607169,26.0262597 24.3613688,25.9555211 23.8464016,25.8461538" id="Fill-11" fill="#108EE9"></path>
                    </g>
                </g>
            </g>
        </g>
    </g>
</svg>